HIERARCHY
ROOT Hips
{
	OFFSET 0.00 0.00 0.00
	CHANNELS 6 Xposition Yposition Zposition Xrotation Yrotation Zrotation
	JOINT Spine
	{
		OFFSET 0.00000 4.88528 0.00000
		CHANNELS 3 Xrotation Yrotation Zrotation
		JOINT Head
		{
			OFFSET 0.00000 16.49416 0.00000
			CHANNELS 3 Xrotation Yrotation Zrotation
			End Site
			{
				OFFSET 0.00000 4.52755 0.00000
			}
		}
		JOINT LeftShoulder
		{
			OFFSET 0.00000 10.66345 0.00000
			CHANNELS 3 Xrotation Yrotation Zrotation
			JOINT LeftArm
			{
				OFFSET 7.53191 0.00000 0.00000
				CHANNELS 3 Xrotation Yrotation Zrotation
				JOINT LeftForeArm
				{
					OFFSET 10.22920 0.00000 0.00000
					CHANNELS 3 Yrotation Zrotation Xrotation
					JOINT LeftHand
					{
						OFFSET 8.67349 0.00000 0.00000
						CHANNELS 3 Xrotation Yrotation Zrotation
						JOINT LeftHandThumb1
						{
							OFFSET 0.00000 0.00000 0.00000
							CHANNELS 3 Xrotation Zrotation Yrotation
							End Site
							{
								OFFSET 0.00000 0.00000 3.93700
							}
						}
						End Site
						{
							OFFSET 3.93700 0.00000 0.00000
						}
					}
				}
			}
		}
		JOINT RightShoulder
		{
			OFFSET 0.00000 10.66345 0.00000
			CHANNELS 3 Xrotation Yrotation Zrotation
			JOINT RightArm
			{
				OFFSET -7.53191 0.00000 0.00000
				CHANNELS 3 Xrotation Yrotation Zrotation
				JOINT RightForeArm
				{
					OFFSET -10.22920 0.00000 0.00000
					CHANNELS 3 Yrotation Zrotation Xrotation
					JOINT RightHand
					{
						OFFSET -8.67349 0.00000 0.00000
						CHANNELS 3 Xrotation Yrotation Zrotation
						JOINT RightHandThumb1
						{
							OFFSET 0.00000 0.00000 0.00000
							CHANNELS 3 Xrotation Zrotation Yrotation
							End Site
							{
								OFFSET 0.00000 0.00000 3.93700
							}
						}
						End Site
						{
							OFFSET -3.93700 0.00000 0.00000
						}
					}
				}
			}
		}
	}
	JOINT LeftUpLeg
	{
		OFFSET 2.67219 0.00000 0.00000
		CHANNELS 3 Xrotation Yrotation Zrotation
		JOINT LeftLeg
		{
			OFFSET 0.00000 -16.26339 0.00000
			CHANNELS 3 Xrotation Yrotation Zrotation
			JOINT LeftFoot
			{
				OFFSET 0.00000 -14.32816 0.00000
				CHANNELS 3 Xrotation Yrotation Zrotation
				JOINT LeftToeBase
				{
					OFFSET 0.00000 -1.30219 4.85985
					CHANNELS 3 Xrotation Yrotation Zrotation
					End Site
					{
						OFFSET 0.00000 0.00000 2.95275
					}
				}
			}
		}
	}
	JOINT RightUpLeg
	{
		OFFSET -2.67219 0.00000 0.00000
		CHANNELS 3 Xrotation Yrotation Zrotation
		JOINT RightLeg
		{
			OFFSET 0.00000 -16.26339 0.00000
			CHANNELS 3 Xrotation Yrotation Zrotation
			JOINT RightFoot
			{
				OFFSET 0.00000 -14.32816 0.00000
				CHANNELS 3 Xrotation Yrotation Zrotation
				JOINT RightToeBase
				{
					OFFSET 0.00000 -1.30219 4.85985
					CHANNELS 3 Xrotation Yrotation Zrotation
					End Site
					{
						OFFSET 0.00000 0.00000 2.95275
					}
				}
			}
		}
	}
}
MOTION
Frames: 13
Frame Time: 0.008333
 3.4184 32.8722 -2.2610 8.4962 -1.4728 -1.3129 -12.8567 -4.2946 -0.8378 15.2964 -1.6148 0.7902 31.2481 32.5319 18.9905 -71.9470 -7.3316 -28.9117 3.5585 0.0000 10.5194 0.2288 -3.5407 3.6995 33.1476 -0.0000 26.2537 -6.1433 -4.1800 -30.0300 -20.1637 -1.9556 41.9692 0.3710 -0.0000 9.3883 -0.0516 3.3155 0.8920 32.8623 0.0000 -24.3270 -0.8831 -3.1367 2.2479 -5.7170 -0.0000 0.0000 -0.4616 17.1669 -10.6517 -10.9755 -0.0000 0.0000 -2.1839 -0.9931 1.5626 -4.2049 -0.0000 -0.0000 -3.8905 -10.4231 5.2811 -2.1566 0.0000 -0.0000
 3.4213 32.8723 -2.2614 8.4909 -1.4881 -1.3174 -12.8533 -4.2828 -0.8327 15.2945 -1.6035 0.8112 31.2580 32.5482 19.0036 -71.9693 -7.3194 -28.9260 3.5623 0.0000 10.5191 0.2278 -3.5676 3.6561 33.1476 -0.0000 26.2537 -6.1361 -4.1605 -30.0230 -20.1523 -1.9492 41.9446 0.3619 -0.0000 9.3767 -0.0504 3.2910 0.8779 32.8623 0.0000 -24.3270 -0.8881 -3.1186 2.2476 -5.6948 -0.0000 0.0000 -0.4839 17.1568 -10.6469 -10.9874 0.0000 -0.0000 -2.1775 -0.9784 1.5623 -4.2118 -0.0000 -0.0000 -3.8918 -10.4283 5.2960 -2.1018 0.0000 0.0000
 3.4241 32.8721 -2.2623 8.4823 -1.5032 -1.3317 -12.8439 -4.2602 -0.8142 15.2948 -1.5959 0.8250 31.2455 32.5433 19.0270 -71.9526 -7.3215 -28.9347 3.5525 0.0000 10.5179 0.2245 -3.5219 3.6490 33.1476 -0.0000 26.2537 -6.1506 -4.1516 -30.0397 -20.1470 -1.9524 41.9453 0.3423 -0.0000 9.3760 -0.0499 3.2582 0.8776 32.8623 0.0000 -24.3270 -0.8769 -3.1188 2.2600 -5.6999 -0.0000 0.0000 -0.4251 17.1590 -10.8314 -11.2065 0.0000 -0.0000 -2.1746 -0.9609 1.5720 -4.2033 -0.0000 0.0000 -3.8987 -10.4349 5.3025 -2.0737 0.0000 -0.0000
 3.4274 32.8721 -2.2642 8.4823 -1.5197 -1.3367 -12.8420 -4.2387 -0.8056 15.2921 -1.5802 0.8495 31.2291 32.5340 19.0465 -71.9478 -7.3225 -28.9283 3.5601 0.0000 10.5218 0.2230 -3.5234 3.6241 33.1476 -0.0000 26.2537 -6.1222 -4.1503 -30.0379 -20.1752 -1.9642 41.9242 0.3426 -0.0000 9.4249 -0.0500 3.2289 0.8872 32.8623 0.0000 -24.3270 -0.8815 -3.1363 2.2611 -5.6893 -0.0000 -0.0000 -0.5032 17.1816 -10.6642 -10.9915 -0.0000 -0.0000 -2.1928 -0.9714 1.5710 -4.1759 0.0000 0.0000 -3.9058 -10.4079 5.3151 -2.1419 -0.0000 0.0000
 3.4302 32.8718 -2.2649 8.4714 -1.5420 -1.3506 -12.8289 -4.2238 -0.7874 15.2942 -1.5505 0.8623 31.2152 32.5356 19.0605 -71.9460 -7.3227 -28.9217 3.5609 0.0000 10.5535 0.2201 -3.5121 3.5890 33.1476 -0.0000 26.2537 -6.1483 -4.1224 -30.0424 -20.1493 -1.9535 41.9105 0.3277 -0.0000 9.4028 -0.0501 3.2439 0.8848 32.8623 0.0000 -24.3270 -0.8698 -3.1212 2.2712 -5.6868 -0.0000 -0.0000 -0.5270 17.1785 -10.6506 -10.9674 0.0000 -0.0000 -2.1885 -0.9441 1.5798 -4.1696 -0.0000 -0.0000 -3.9059 -10.4181 5.3248 -2.1063 0.0000 0.0000
 3.4333 32.8720 -2.2656 8.4737 -1.5596 -1.3605 -12.8337 -4.1986 -0.7707 15.3041 -1.5468 0.8748 31.2107 32.5240 19.0735 -71.9261 -7.3273 -28.9078 3.5551 0.0000 10.5186 0.2187 -3.5335 3.5437 33.1476 -0.0000 26.2537 -6.1306 -4.1214 -30.0463 -20.1517 -1.9532 41.8950 0.3294 -0.0000 9.4337 -0.0479 3.2529 0.8439 32.8623 0.0000 -24.3270 -0.8747 -3.1095 2.2749 -5.6788 -0.0000 -0.0000 -0.5406 17.1771 -10.6296 -10.9619 0.0000 -0.0000 -2.1946 -0.9352 1.5852 -4.1686 0.0000 0.0000 -3.9006 -10.4299 5.3428 -2.0953 -0.0000 -0.0000
 3.4372 32.8720 -2.2666 8.4724 -1.5716 -1.3699 -12.8331 -4.1919 -0.7507 15.3123 -1.5329 0.8681 31.2134 32.5173 19.0674 -71.9002 -7.3490 -28.8865 3.5553 0.0000 10.5000 0.2183 -3.5248 3.5461 33.1476 -0.0000 26.2537 -6.1299 -4.1110 -30.0560 -20.1482 -1.9266 41.8879 0.3162 -0.0000 9.4042 -0.0475 3.2457 0.8381 32.8623 0.0000 -24.3270 -0.8725 -3.1051 2.2781 -5.6820 -0.0000 0.0000 -0.5514 17.1827 -10.6365 -10.9568 -0.0000 -0.0000 -2.1956 -0.9205 1.5871 -4.1709 -0.0000 0.0000 -3.8982 -10.4237 5.3355 -2.0901 0.0000 -0.0000
 3.4409 32.8717 -2.2670 8.4678 -1.5882 -1.3760 -12.8287 -4.1690 -0.7345 15.3216 -1.5193 0.8692 31.2163 32.5104 19.0710 -71.9192 -7.3345 -28.8713 3.5449 0.0000 10.5287 0.2201 -3.5463 3.5535 33.1476 -0.0000 26.2537 -6.1216 -4.1082 -30.0663 -20.1680 -1.9419 41.8747 0.3244 -0.0000 9.4357 -0.0465 3.2364 0.8240 32.8623 0.0000 -24.3270 -0.8715 -3.0766 2.2754 -5.6745 0.0000 0.0000 -0.5640 17.1703 -10.6203 -10.9886 -0.0000 -0.0000 -2.1976 -0.9057 1.5871 -4.1629 -0.0000 0.0000 -3.8972 -10.4273 5.3657 -2.1032 0.0000 -0.0000
 3.4450 32.8717 -2.2680 8.4599 -1.6063 -1.3753 -12.8189 -4.1534 -0.7253 15.3302 -1.5039 0.8651 31.2183 32.5186 19.0739 -71.9183 -7.3268 -28.8643 3.5239 0.0000 10.5585 0.2220 -3.5620 3.5690 33.1476 -0.0000 26.2537 -6.1478 -4.0716 -30.0742 -20.1434 -1.9561 41.8559 0.3361 -0.0000 9.4660 -0.0472 3.2214 0.8395 32.8623 0.0000 -24.3270 -0.8640 -3.0712 2.2705 -5.6734 0.0000 0.0000 -0.5697 17.1703 -10.6297 -10.9966 0.0000 -0.0000 -2.1946 -0.8855 1.5800 -4.1613 0.0000 0.0000 -3.8989 -10.4365 5.3650 -2.0704 0.0000 -0.0000
 3.4488 32.8715 -2.2687 8.4560 -1.6102 -1.3799 -12.8141 -4.1406 -0.7164 15.3418 -1.4970 0.8709 31.2303 32.5259 19.0737 -71.9212 -7.3332 -28.8586 3.5067 0.0000 10.5598 0.2254 -3.5776 3.6069 33.1476 -0.0000 26.2537 -6.1489 -4.0786 -30.0897 -20.1492 -1.9366 41.8622 0.3337 -0.0000 9.4265 -0.0498 3.0871 0.9247 32.8623 0.0000 -24.3270 -0.8629 -3.0727 2.2685 -5.6660 -0.0000 0.0000 -0.5958 17.1740 -10.6103 -10.9490 -0.0000 0.0000 -2.1891 -0.8658 1.5785 -4.1666 -0.0000 -0.0000 -3.8994 -10.4548 5.3627 -2.0804 0.0000 0.0000
 3.4532 32.8714 -2.2687 8.4531 -1.6205 -1.3825 -12.8115 -4.1218 -0.7021 15.3507 -1.4796 0.8599 31.2385 32.5359 19.0756 -71.9203 -7.3323 -28.8632 3.4939 0.0000 10.5937 0.2305 -3.6053 3.6611 33.1476 -0.0000 26.2537 -6.1523 -4.0688 -30.0946 -20.1657 -1.9509 41.8384 0.3335 -0.0000 9.4559 -0.0508 3.0983 0.9396 32.8623 0.0000 -24.3270 -0.8621 -3.0443 2.2629 -5.6623 -0.0000 -0.0000 -0.5946 17.1436 -10.6233 -10.9748 0.0000 -0.0000 -2.1879 -0.8757 1.5734 -4.1643 -0.0000 -0.0000 -3.9021 -10.4407 5.3683 -2.1322 -0.0000 0.0000
 3.4570 32.8711 -2.2694 8.4481 -1.6305 -1.3862 -12.8057 -4.1167 -0.6888 15.3657 -1.4603 0.8451 31.2223 32.5336 19.0900 -71.9076 -7.3090 -28.8475 3.4763 0.0000 10.6139 0.2337 -3.6149 3.7007 33.1476 -0.0000 26.2537 -6.1577 -4.0465 -30.1109 -20.1548 -1.9393 41.8388 0.3313 -0.0000 9.4108 -0.0531 3.0876 0.9859 32.8623 0.0000 -24.3270 -0.8581 -3.0433 2.2608 -5.6579 0.0000 -0.0000 -0.6085 17.1576 -10.6207 -10.9644 -0.0000 0.0000 -2.1831 -0.8637 1.5722 -4.1676 -0.0000 0.0000 -3.9080 -10.4526 5.3355 -2.1026 -0.0000 0.0000
 3.4610 32.8708 -2.2697 8.4466 -1.6379 -1.3968 -12.8019 -4.1056 -0.6639 15.3704 -1.4459 0.8244 31.2225 32.5366 19.0893 -71.9003 -7.3110 -28.8399 3.4548 0.0000 10.6096 0.2281 -3.5927 3.6349 33.1476 -0.0000 26.2537 -6.1683 -4.0328 -30.1258 -20.1505 -1.9308 41.8254 0.3213 -0.0000 9.3903 -0.0554 3.0897 1.0273 32.8623 0.0000 -24.3270 -0.8556 -3.0497 2.2686 -5.6547 0.0000 0.0000 -0.6302 17.1504 -10.6530 -10.9287 -0.0000 0.0000 -2.1819 -0.8464 1.5765 -4.1705 0.0000 -0.0000 -3.9055 -10.4766 5.3602 -2.1033 -0.0000 0.0000
